<mxfile host="app.diagrams.net" agent="Mozilla/5.0 (Macintosh; Intel Mac OS X 10_15_7) AppleWebKit/537.36 (KHTML, like Gecko) Chrome/134.0.0.0 Safari/537.36" version="26.1.1">
  <diagram id="R2lEEEUBdFMjLlhIrx00" name="Page-1">
    <mxGraphModel dx="767" dy="369" grid="1" gridSize="10" guides="1" tooltips="1" connect="1" arrows="1" fold="1" page="1" pageScale="1" pageWidth="850" pageHeight="1100" math="0" shadow="0" extFonts="Permanent Marker^https://fonts.googleapis.com/css?family=Permanent+Marker">
      <root>
        <mxCell id="0" />
        <mxCell id="1" parent="0" />
        <mxCell id="6URFFwymK9WN0A6GDJgC-1" value="Club" style="rounded=0;whiteSpace=wrap;html=1;" vertex="1" parent="1">
          <mxGeometry x="600" y="280" width="90" height="50" as="geometry" />
        </mxCell>
        <mxCell id="6URFFwymK9WN0A6GDJgC-2" value="Chairman" style="rounded=0;whiteSpace=wrap;html=1;" vertex="1" parent="1">
          <mxGeometry x="170" y="140" width="90" height="50" as="geometry" />
        </mxCell>
        <mxCell id="6URFFwymK9WN0A6GDJgC-3" value="CEO" style="rounded=0;whiteSpace=wrap;html=1;" vertex="1" parent="1">
          <mxGeometry x="610" y="130" width="90" height="50" as="geometry" />
        </mxCell>
        <mxCell id="6URFFwymK9WN0A6GDJgC-4" value="Team" style="rounded=0;whiteSpace=wrap;html=1;" vertex="1" parent="1">
          <mxGeometry x="310" y="400" width="90" height="50" as="geometry" />
        </mxCell>
        <mxCell id="6URFFwymK9WN0A6GDJgC-5" value="Manager" style="rounded=0;whiteSpace=wrap;html=1;" vertex="1" parent="1">
          <mxGeometry x="200" y="400" width="90" height="50" as="geometry" />
        </mxCell>
        <mxCell id="6URFFwymK9WN0A6GDJgC-6" value="Player" style="rounded=0;whiteSpace=wrap;html=1;" vertex="1" parent="1">
          <mxGeometry x="425" y="400" width="90" height="50" as="geometry" />
        </mxCell>
        <mxCell id="6URFFwymK9WN0A6GDJgC-7" value="Coach" style="rounded=0;whiteSpace=wrap;html=1;" vertex="1" parent="1">
          <mxGeometry x="540" y="400" width="90" height="50" as="geometry" />
        </mxCell>
        <mxCell id="6URFFwymK9WN0A6GDJgC-8" value="Physician" style="rounded=0;whiteSpace=wrap;html=1;" vertex="1" parent="1">
          <mxGeometry x="660" y="400" width="90" height="50" as="geometry" />
        </mxCell>
        <mxCell id="6URFFwymK9WN0A6GDJgC-9" value="Match" style="rounded=0;whiteSpace=wrap;html=1;" vertex="1" parent="1">
          <mxGeometry x="130" y="480" width="90" height="50" as="geometry" />
        </mxCell>
      </root>
    </mxGraphModel>
  </diagram>
</mxfile>
